<svg width="651" height="81" viewBox="0 0 651 81" fill="none" xmlns="http://www.w3.org/2000/svg">
<g clip-path="url(#clip0_500_92)">
<rect width="81" height="651" transform="matrix(0 -1 1 0 0 81)" fill="black"/>
<rect width="68" height="651" transform="matrix(0 -1 1 0 0 74.5)" fill="#161616"/>
<rect x="5" y="11.5" width="48" height="58" rx="14" fill="#3A3A3A"/>
<path d="M17.4979 27.0437C15.5715 24.4268 18.5997 21.0423 21.4139 22.6671L44.4999 35.9957C46.5 37.1504 46.5 40.0371 44.4999 41.1918L21.4139 54.5204C18.5997 56.1452 15.5715 52.7607 17.4979 50.1438L24.6913 40.3723C25.47 39.3145 25.47 37.8731 24.6913 36.8152L17.4979 27.0437Z" fill="#FE55A2"/>
<rect x="64.2998" y="11.5" width="48" height="58" rx="14" fill="#3A3A3A"/>
<path d="M76.7977 27.0437C74.8713 24.4268 77.8995 21.0423 80.7137 22.6671L103.8 35.9957C105.8 37.1504 105.8 40.0371 103.8 41.1918L80.7137 54.5204C77.8995 56.1452 74.8713 52.7607 76.7977 50.1438L83.9911 40.3723C84.7698 39.3145 84.7698 37.8731 83.9911 36.8152L76.7977 27.0437Z" fill="#FE55A2"/>
<rect x="123.6" y="11.5" width="48" height="58" rx="14" fill="#3A3A3A"/>
<path d="M136.098 27.0437C134.171 24.4268 137.199 21.0423 140.013 22.6671L163.1 35.9957C165.1 37.1504 165.1 40.0371 163.1 41.1918L140.013 54.5204C137.199 56.1452 134.171 52.7607 136.098 50.1438L143.291 40.3723C144.07 39.3145 144.07 37.8731 143.291 36.8152L136.098 27.0437Z" fill="#FE55A2"/>
<rect x="182.9" y="11.5" width="48" height="58" rx="14" fill="#3A3A3A"/>
<path d="M195.398 27.0437C193.472 24.4268 196.5 21.0423 199.314 22.6671L222.4 35.9957C224.4 37.1504 224.4 40.0371 222.4 41.1918L199.314 54.5204C196.5 56.1452 193.472 52.7607 195.398 50.1438L202.592 40.3723C203.37 39.3145 203.37 37.8731 202.592 36.8152L195.398 27.0437Z" fill="#FE55A2"/>
<rect x="242.2" y="11.5" width="48" height="58" rx="14" fill="#3A3A3A"/>
<path d="M254.698 27.0437C252.772 24.4268 255.8 21.0423 258.614 22.6671L281.7 35.9957C283.7 37.1504 283.7 40.0371 281.7 41.1918L258.614 54.5204C255.8 56.1452 252.772 52.7607 254.698 50.1438L261.891 40.3723C262.67 39.3145 262.67 37.8731 261.891 36.8152L254.698 27.0437Z" fill="#FE55A2"/>
<rect x="301.5" y="11.5" width="48" height="58" rx="14" fill="#3A3A3A"/>
<path d="M313.998 27.0437C312.071 24.4268 315.1 21.0423 317.914 22.6671L341 35.9957C343 37.1504 343 40.0371 341 41.1918L317.914 54.5204C315.1 56.1452 312.071 52.7607 313.998 50.1438L321.191 40.3723C321.97 39.3145 321.97 37.8731 321.191 36.8152L313.998 27.0437Z" fill="#FE55A2"/>
<rect x="360.8" y="11.5" width="48" height="58" rx="14" fill="#3A3A3A"/>
<path d="M373.298 27.0437C371.371 24.4268 374.4 21.0423 377.214 22.6671L400.3 35.9957C402.3 37.1504 402.3 40.0371 400.3 41.1918L377.214 54.5204C374.4 56.1452 371.371 52.7607 373.298 50.1438L380.491 40.3723C381.27 39.3145 381.27 37.8731 380.491 36.8152L373.298 27.0437Z" fill="#FE55A2"/>
<rect x="420.1" y="11.5" width="48" height="58" rx="14" fill="#3A3A3A"/>
<path d="M432.598 27.0437C430.671 24.4268 433.699 21.0423 436.513 22.6671L459.6 35.9957C461.6 37.1504 461.6 40.0371 459.6 41.1918L436.513 54.5204C433.699 56.1452 430.671 52.7607 432.598 50.1438L439.791 40.3723C440.57 39.3145 440.57 37.8731 439.791 36.8152L432.598 27.0437Z" fill="#FE55A2"/>
<rect x="479.4" y="11.5" width="48" height="58" rx="14" fill="#3A3A3A"/>
<path d="M491.898 27.0437C489.972 24.4268 493 21.0423 495.814 22.6671L518.9 35.9957C520.9 37.1504 520.9 40.0371 518.9 41.1918L495.814 54.5204C493 56.1452 489.972 52.7607 491.898 50.1438L499.092 40.3723C499.87 39.3145 499.87 37.8731 499.092 36.8152L491.898 27.0437Z" fill="#FE55A2"/>
<rect x="538.7" y="11.5" width="48" height="58" rx="14" fill="#3A3A3A"/>
<path d="M551.198 27.0437C549.272 24.4268 552.3 21.0423 555.114 22.6671L578.2 35.9957C580.2 37.1504 580.2 40.0371 578.2 41.1918L555.114 54.5204C552.3 56.1452 549.272 52.7607 551.198 50.1438L558.391 40.3723C559.17 39.3145 559.17 37.8731 558.391 36.8152L551.198 27.0437Z" fill="#FE55A2"/>
<rect x="598" y="11.5" width="48" height="58" rx="14" fill="#3A3A3A"/>
<path d="M610.498 27.0437C608.571 24.4268 611.6 21.0423 614.414 22.6671L637.5 35.9957C639.5 37.1504 639.5 40.0371 637.5 41.1918L614.414 54.5204C611.6 56.1452 608.571 52.7607 610.498 50.1438L617.691 40.3723C618.47 39.3145 618.47 37.8731 617.691 36.8152L610.498 27.0437Z" fill="#FE55A2"/>
</g>
<defs>
<clipPath id="clip0_500_92">
<rect width="81" height="651" fill="white" transform="matrix(0 -1 1 0 0 81)"/>
</clipPath>
</defs>
</svg>
